<?xml version="1.0" encoding="UTF-8"?>
<svg width="158px" height="72px" viewBox="0 0 158 72" version="1.1" xmlns="http://www.w3.org/2000/svg" xmlns:xlink="http://www.w3.org/1999/xlink">
    <!-- Generator: Sketch 55.1 (78136) - https://sketchapp.com -->
    <title>dapp_radar</title>
    <desc>Created with Sketch.</desc>
    <g id="dapp_radar" stroke="none" stroke-width="1" fill="none" fill-rule="evenodd">
        <g id="Group-23" transform="translate(11.591808, 7.298546)">
            <path d="M48.4153389,2.79340332 L61.0733167,24.6834749 C62.0728623,26.4120388 62.0728623,28.5417175 61.0733167,30.2702815 L48.4153389,52.160353 C47.4157933,53.888917 45.5685569,54.9537564 43.5694657,54.9537564 L18.2535102,54.9537564 C16.254419,54.9537564 14.4071826,53.888917 13.407637,52.160353 L0.749659194,30.2702815 C-0.249886398,28.5417175 -0.249886398,26.4120388 0.749659194,24.6834749 L13.407637,2.79340332 C14.4071826,1.06483933 16.254419,0 18.2535102,0 L43.5694657,0 C45.5685569,0 47.4157933,1.06483933 48.4153389,2.79340332 Z M17.9148015,41.4327768 C18.1607589,41.6709387 18.4130005,41.9025173 18.6712495,42.1272327 L18.6730016,42.1254464 L30.5632,31.2991717 C30.7469176,31.3266043 30.9348933,31.3408142 31.1261511,31.3408142 C33.236433,31.3408142 34.9471544,29.6108711 34.9471544,27.4768782 C34.9471544,25.3428853 33.236433,23.6129422 31.1261511,23.6129422 C29.0158692,23.6129422 27.3051477,25.3428853 27.3051477,27.4768782 C27.3051477,27.9293511 27.3820569,28.363659 27.523377,28.7671631 L24.5716866,31.454739 C23.8716084,30.2769311 23.4841443,28.910793 23.4841443,27.4768782 C23.4841443,23.2088923 26.9055873,19.7490062 31.1261511,19.7490062 C35.3467148,19.7490062 38.7681578,23.2088923 38.7681578,27.4768782 C38.7681578,31.744864 35.3467148,35.2047502 31.1261511,35.2047502 L31.1261511,39.0686862 C37.4569967,39.0686862 42.5891612,33.8788569 42.5891612,27.4768782 C42.5891612,21.0748994 37.4569967,15.8850702 31.1261511,15.8850702 C24.7953054,15.8850702 19.6631409,21.0748994 19.6631409,27.4768782 C19.6631409,29.9269636 20.4148237,32.1995115 21.6977045,34.0715599 L18.839694,36.6738383 C16.9183893,34.0551585 15.8421376,30.8567233 15.8421376,27.4768782 C15.8421376,18.9409065 22.6850235,12.0211342 31.1261511,12.0211342 C39.5672786,12.0211342 46.4101645,18.9409065 46.4101645,27.4768782 C46.4101645,36.0128499 39.5672786,42.9326222 31.1261511,42.9326222 L31.1261511,46.7965581 C41.6775605,46.7965581 50.2311679,38.1468428 50.2311679,27.4768782 C50.2311679,16.8069136 41.6775605,8.15719821 31.1261511,8.15719821 C20.5747416,8.15719821 12.0211342,16.8069136 12.0211342,27.4768782 C12.0211342,31.916045 13.5016951,36.0055229 15.9907088,39.267899 L15.9894646,39.2690319 C16.0168944,39.3039906 16.0444295,39.3389071 16.0720698,39.3737812 C16.3749935,39.7652033 16.6925211,40.1445111 17.0238238,40.5108662 C17.0520977,40.5428985 17.0804654,40.5748931 17.1089269,40.6068501 C17.3341913,40.8597802 17.6028162,41.1350891 17.9148015,41.4327768 L17.9148015,41.4327768 Z" id="Combined-Shape" fill="#FF3993" fill-rule="nonzero"></path>
            <text id="Sport-Center" font-family="ArialRoundedMTBold, Arial Rounded MT Bold" font-size="18.8903537" font-weight="normal" line-spacing="22.5714286" fill="#000000">
                <tspan x="67.795126" y="22.6510341">Sport </tspan>
                <tspan x="61.8965024" y="45.2224626">Center</tspan>
            </text>
            <g id="Group-24" transform="translate(3.649273, 0.000000)"></g>
        </g>
    </g>
</svg>